<?xml version="1.0" encoding="UTF-8"?>
<svg version="1.1" xmlns="http://www.w3.org/2000/svg" width="1875" height="674">
<path d="M0 0 C1.87738037 0.21751404 1.87738037 0.21751404 4.40527344 0.71264648 C5.85513641 0.99314598 5.85513641 0.99314598 7.33428955 1.27931213 C8.95545685 1.60318153 8.95545685 1.60318153 10.609375 1.93359375 C12.3226297 2.27009193 12.3226297 2.27009193 14.07049561 2.61338806 C18.04890153 3.39968063 22.0247908 4.19773764 26 5 C26.73108978 5.14732826 27.46217957 5.29465652 28.21542358 5.44644928 C38.00002141 7.41984586 47.77781476 9.42479879 57.54946136 11.46135902 C61.86638373 12.36098499 66.18427528 13.25518785 70.50488281 14.13696289 C74.76482753 15.00643755 79.021926 15.88873147 83.2773056 16.78027153 C84.87907389 17.11364686 86.48177579 17.44257124 88.08542633 17.76677132 C90.31134773 18.21770827 92.53321834 18.68509403 94.75488281 19.15649414 C96.01326965 19.41676895 97.27165649 19.67704376 98.56817627 19.94520569 C103.27415733 21.3916209 106.76584388 23.47787412 109.875 27.3125 C112.44516382 33.45233578 110.56813595 39.75501806 109 45.9375 C108.80921875 46.71673828 108.6184375 47.49597656 108.421875 48.29882812 C107.9550862 50.20099248 107.47854864 52.10076009 107 54 C105.75500732 54.0093457 104.51001465 54.01869141 103.22729492 54.02832031 C98.56206852 54.06850711 93.89748186 54.13434299 89.23266602 54.20751953 C87.22233361 54.23556393 85.21189433 54.25685979 83.20141602 54.27099609 C68.47195673 54.38072636 56.28726789 54.54463341 45.171875 65.39453125 C38.90920165 72.90748651 37.18290478 81.0415142 37.5859375 90.671875 C38.85743806 100.89186063 43.97534718 107.95843143 51.875 114.3125 C58.94243457 118.12891467 66.71824608 119.72579528 74.53344727 121.3125 C75.54603607 121.52269775 76.55862488 121.73289551 77.60189819 121.94946289 C79.78498047 122.40195589 81.96857269 122.85199435 84.15262032 123.29980469 C87.61375635 124.00971189 91.07338199 124.72659986 94.53269958 125.4453125 C103.12061611 127.2281716 111.71077297 129.0001273 120.30126953 130.77050781 C127.57282749 132.26928765 134.843297 133.77314186 142.11231804 135.28417969 C145.51237597 135.98880284 148.91392072 136.68590449 152.31556702 137.3828125 C154.4091081 137.81731822 156.50257233 138.25219447 158.59594727 138.6875 C159.5348732 138.87771729 160.47379913 139.06793457 161.44117737 139.26391602 C175.24758955 142.15996902 175.24758955 142.15996902 179.5 146.625 C182.47681057 153.32282377 180.98643621 160.39836213 179.36352539 167.33374023 C179.18956741 168.11212753 179.01560944 168.89051483 178.83638 169.69248962 C178.26605871 172.2333823 177.68211328 174.77091882 177.09765625 177.30859375 C176.69571889 179.08438534 176.29456241 180.86035385 175.89414978 182.63648987 C175.05676747 186.34194049 174.21318441 190.04590072 173.36450195 193.7487793 C172.27546092 198.50059597 171.19717392 203.25476757 170.12285709 208.00993252 C169.09720405 212.54780057 168.06644412 217.08450355 167.03515625 221.62109375 C166.74018596 222.92138928 166.74018596 222.92138928 166.43925667 224.24795341 C165.88427746 226.68996349 165.32569177 229.13111782 164.76586914 231.57202148 C164.60115112 232.29875061 164.43643311 233.02547974 164.26672363 233.77423096 C163.11485577 238.77028847 163.11485577 238.77028847 162 241 C127.80237965 246.97101308 86.47186657 232.59689804 58.48974609 213.36254883 C18.90668391 185.20558248 -6.43747277 145.37759164 -14.64013672 97.43237305 C-19.52107091 64.44136401 -14.1344718 31.43525455 -1 1 C-0.67 0.67 -0.34 0.34 0 0 Z " fill="#008447" transform="translate(107,241)"/>
<path d="M0 0 C1.2794167 -0.01041829 1.2794167 -0.01041829 2.5846802 -0.02104706 C5.43592257 -0.0393083 8.28633208 -0.02905519 11.13760376 -0.01878357 C13.18460207 -0.02584254 15.23159516 -0.03458746 17.27857971 -0.04489136 C22.83445499 -0.06739897 28.39004556 -0.06444211 33.94594908 -0.05556989 C38.58562359 -0.0504603 43.22524458 -0.05775245 47.86491358 -0.06504196 C58.81181489 -0.08204577 69.75857683 -0.07847071 80.70547485 -0.06175232 C91.99475581 -0.04483382 103.28365002 -0.06066092 114.57288873 -0.0929752 C124.26904961 -0.11967691 133.96509014 -0.1269454 143.66128409 -0.11846012 C149.45076365 -0.11353223 155.24001057 -0.11573916 161.02946091 -0.13624763 C166.47478742 -0.1546134 171.91955811 -0.14863461 177.36485481 -0.12404823 C179.36106782 -0.11904307 181.35732323 -0.12252242 183.35350227 -0.13519669 C186.08355389 -0.15115647 188.81178177 -0.1361492 191.54174805 -0.11352539 C192.72046716 -0.13127898 192.72046716 -0.13127898 193.92299879 -0.14939123 C199.78749106 -0.05098101 203.87663568 1.76907186 208.39785767 5.5146637 C212.29601134 10.22367709 213.70284017 15.44464056 213.39785767 21.5146637 C211.11054107 29.70167398 207.28311967 37.48571492 203.77285767 45.2021637 C203.21125265 46.44481833 202.65006871 47.68766334 202.08926392 48.93067932 C200.86294607 51.64751343 199.63450672 54.36337491 198.4046936 57.07862854 C195.10941078 64.35780029 191.83602805 71.64685009 188.55865479 78.93409729 C187.39440254 81.52234478 186.22959987 84.11034382 185.06460571 86.69825745 C178.49304388 101.29658631 171.94148096 115.90378961 165.39785767 130.5146637 C161.98923433 138.12557956 158.57931314 145.7359074 155.16516113 153.34434509 C153.49814455 157.05984431 151.83291168 160.77613538 150.16934204 164.49317932 C148.16717284 168.96664447 146.16230991 173.43889508 144.15600586 177.9105072 C143.36963493 179.66435181 142.58414813 181.41859314 141.79962158 183.17326355 C128.24595794 213.48231541 128.24595794 213.48231541 122.39785767 216.5146637 C116.70469988 217.36942155 112.04077607 217.32171133 106.83535767 214.7646637 C102.17928785 210.4667531 100.8366437 207.516633 100.38922501 201.27064323 C100.40395002 196.56967733 101.39274474 192.19767931 102.47158813 187.63990784 C102.8200882 186.08414284 102.8200882 186.08414284 103.17562866 184.49694824 C103.94127241 181.09452425 104.72826568 177.69741243 105.51504517 174.29981995 C106.05371281 171.91942735 106.59080735 169.53867828 107.12640381 167.15759277 C108.53662909 160.9035279 109.96404635 154.65352634 111.39639282 148.40449524 C113.68550094 138.40845746 115.9523213 128.40738436 118.21167374 118.40458488 C119.00082389 114.9250251 119.79969489 111.44780418 120.59973145 107.97073364 C121.08857327 105.82016338 121.57712398 103.66952692 122.06533813 101.51881409 C122.28773163 100.56419281 122.51012512 99.60957153 122.73925781 98.62602234 C125.23175287 87.55610547 126.92360535 77.6263073 121.17520142 67.32325745 C115.17473008 58.5147661 106.8790669 54.78727515 96.72598267 52.7412262 C95.63287781 52.50449188 94.53977295 52.26775757 93.4135437 52.02384949 C90.16752801 51.32731123 86.91840305 50.6507542 83.66650391 49.98251343 C80.3429045 49.29710684 77.02187033 48.59956943 73.70053864 47.90327072 C64.94044776 46.06755002 56.1774933 44.24562988 47.41348267 42.4287262 C46.4098896 42.22056149 45.40629654 42.01239677 44.37229156 41.79792404 C39.20753071 40.72754577 34.04181329 39.66210874 28.87442017 38.60450745 C23.79758225 37.56501322 18.72353664 36.51275426 13.65110016 35.45199966 C11.73678314 35.05416966 9.82147775 34.66106342 7.90517426 34.27291489 C5.24348371 33.73326919 2.58566684 33.17738684 -0.0718689 32.61769104 C-0.85101654 32.46383438 -1.63016418 32.30997772 -2.43292236 32.15145874 C-8.0833668 30.9351549 -12.39762575 28.88511163 -16.41854858 24.5615387 C-18.61570031 20.76184397 -18.80994067 16.83946661 -18.60214233 12.5146637 C-17.38198006 8.04581937 -15.64390295 5.3623186 -12.04627037 2.43501377 C-7.76568454 0.04827808 -4.80352502 -0.05008987 0 0 Z " fill="#0A6CB6" transform="translate(179.60214233398438,312.48533630371094)"/>
<path d="M0 0 C3.55697895 3.05987211 6.92398145 6.29754038 10.27636719 9.58056641 C11.29272768 10.54730826 12.30966562 11.51344335 13.32714844 12.47900391 C24.77552137 23.47561062 33.57059232 35.73629291 41.27636719 49.58056641 C41.61909668 50.18674805 41.96182617 50.79292969 42.31494141 51.41748047 C54.21366691 72.73152108 61.55728508 98.13177474 62.27636719 122.58056641 C62.29683105 123.21961914 62.31729492 123.85867188 62.33837891 124.51708984 C63.66840043 172.20001029 46.79027176 215.81917982 14.27636719 250.58056641 C10.20108615 254.82253494 6.01655859 258.79313708 1.46386719 262.51806641 C0.06201172 263.67628906 0.06201172 263.67628906 -1.36816406 264.85791016 C-3.72363281 266.58056641 -3.72363281 266.58056641 -5.72363281 266.58056641 C-5.07386312 262.16213247 -3.42748282 258.39334606 -1.54785156 254.38525391 C-1.22694046 253.6893364 -0.90602936 252.99341888 -0.57539368 252.27641296 C0.11486427 250.78072818 0.80747211 249.28612605 1.50219727 247.79251099 C3.35085792 243.81686262 5.18136006 239.83285155 7.01464844 235.85009766 C7.38268585 235.05182053 7.75072327 234.2535434 8.12991333 233.43107605 C12.72854363 223.44792485 17.16581889 213.39462511 21.60742188 203.34082031 C23.19273838 199.76183356 24.79407499 196.19011726 26.39703369 192.6190033 C27.87080918 189.33505589 29.34099817 186.0495078 30.81103516 182.7638855 C31.53077281 181.1576304 32.25209529 179.55208439 32.97509766 177.94729614 C33.9887117 175.69675991 34.99639211 173.44364964 36.00292969 171.18994141 C36.30445953 170.52439743 36.60598938 169.85885345 36.91665649 169.17314148 C41.48252333 158.90308069 43.27632398 148.71670047 39.71386719 137.83056641 C36.00287096 128.91639015 30.07363225 121.78186521 21.27636719 117.58056641 C12.50198792 113.96677171 3.64482014 114.10554366 -5.66894531 114.06884766 C-7.29134454 114.05197307 -8.91373093 114.03381916 -10.53610229 114.01445007 C-14.77412905 113.96724521 -19.01210367 113.93724604 -23.25030518 113.91101074 C-27.58787323 113.88105502 -31.92526215 113.83457686 -36.26269531 113.78955078 C-44.74958584 113.70385412 -53.23649323 113.63636063 -61.72363281 113.58056641 C-59.93175954 107.90954773 -57.91688246 102.48125913 -55.38769531 97.10009766 C-55.07166855 96.41663773 -54.75564178 95.7331778 -54.43003845 95.02900696 C-53.75518148 93.56969189 -53.07843818 92.11124785 -52.39993286 90.65362549 C-50.60069459 86.78481143 -48.81996712 82.90751318 -47.04003906 79.02978516 C-46.6790361 78.2435376 -46.31803314 77.45729004 -45.9460907 76.6472168 C-42.60314884 69.34940409 -39.338965 62.01864537 -36.13616943 54.65829468 C-35.57327341 53.36519395 -35.00855929 52.072883 -34.44195557 50.78140259 C-33.6568882 48.99019171 -32.87953446 47.195606 -32.10253906 45.40087891 C-31.66498291 44.39299316 -31.22742676 43.38510742 -30.77661133 42.34667969 C-27.28511591 33.17472441 -27.92895126 23.54460661 -31.72363281 14.58056641 C-36.63746098 5.2427621 -43.37026305 -0.97472041 -53.23144531 -4.69287109 C-58.0697324 -6.1034062 -62.7734963 -6.5463044 -67.79806519 -6.57765198 C-69.59003075 -6.59233521 -69.59003075 -6.59233521 -71.41819763 -6.60731506 C-72.71508011 -6.61307053 -74.01196259 -6.61882599 -75.34814453 -6.62475586 C-76.73817734 -6.63434395 -78.12820728 -6.64435457 -79.51823425 -6.65475464 C-83.28013732 -6.6817089 -87.0420528 -6.70276955 -90.80399847 -6.72275662 C-94.73980802 -6.74467489 -98.67557969 -6.77203492 -102.61135864 -6.79881287 C-110.05911599 -6.84866096 -117.50689445 -6.89362893 -124.95469296 -6.93683523 C-133.43595329 -6.98627511 -141.9171756 -7.04116814 -150.39839911 -7.09651482 C-167.84010851 -7.2102138 -185.28185324 -7.317079 -202.72363281 -7.41943359 C-199.32428553 -10.96281317 -195.75289894 -13.37193794 -191.47363281 -15.73193359 C-190.7669043 -16.12292236 -190.06017578 -16.51391113 -189.33203125 -16.91674805 C-129.3971351 -49.52212891 -52.96219453 -43.61504235 0 0 Z " fill="#4DAB60" transform="translate(367.7236328125,181.41943359375)"/>
<path d="M0 0 C0.83813053 -0.00367669 1.67626107 -0.00735338 2.5397895 -0.01114148 C5.35862985 -0.02218703 8.17743335 -0.02602364 10.99629211 -0.02983093 C13.01328651 -0.03609494 15.03027976 -0.04274169 17.04727173 -0.04974365 C22.53505551 -0.06715947 28.02283057 -0.0777071 33.51063514 -0.08594918 C36.93880156 -0.09109832 40.36696527 -0.0971741 43.79512978 -0.10346031 C54.51977176 -0.12251439 65.24440685 -0.13674483 75.96906251 -0.14507228 C88.35111413 -0.15484519 100.732987 -0.18116533 113.11497563 -0.22157317 C122.683661 -0.25172891 132.25229513 -0.26654066 141.8210271 -0.26985329 C147.53676803 -0.27220446 153.25231806 -0.28117367 158.96800804 -0.30631447 C164.34670987 -0.32959044 169.72509502 -0.33383019 175.10383415 -0.32355309 C177.07586978 -0.3230575 179.04792097 -0.32938468 181.01990891 -0.34310913 C183.71702016 -0.36082693 186.41299483 -0.35372254 189.11010742 -0.34057617 C190.27438681 -0.35703004 190.27438681 -0.35703004 191.46218699 -0.37381631 C197.00396798 -0.30882223 201.22800181 1.08947334 205.87251282 4.14717102 C211.0442496 9.59110448 212.50930106 14.20072353 212.36372375 21.6139679 C211.37680966 28.71268596 208.04229781 34.98434223 204.99751282 41.39717102 C204.28228291 42.94601642 203.56935848 44.49592828 202.8585968 46.04682922 C201.34591952 49.34162139 199.82196476 52.63087297 198.29096985 55.91719055 C195.75599001 61.3764023 193.29132173 66.86599948 190.83735657 72.36201477 C190.22060059 73.74216263 190.22060059 73.74216263 189.59138489 75.15019226 C188.77437624 76.97875564 187.95750039 78.80737837 187.14076233 80.63606262 C185.21411842 84.94811697 183.28334039 89.25825419 181.34516907 93.56513977 C181.00734909 94.32068649 180.66952911 95.07623322 180.32147217 95.85467529 C177.98713568 101.03254816 177.98713568 101.03254816 176.87251282 102.14717102 C175.15385873 102.24076292 173.43135538 102.26461713 171.7101593 102.26069641 C170.60909348 102.26062088 169.50802765 102.26054535 168.37359619 102.26046753 C167.17569962 102.25530624 165.97780304 102.25014496 164.74360657 102.24482727 C163.52423904 102.24341232 162.30487152 102.24199738 161.04855347 102.24053955 C157.13568212 102.23492069 153.22286701 102.22236498 149.31001282 102.20967102 C146.66483135 102.20465845 144.01964899 102.20009512 141.37446594 102.19599915 C134.87379556 102.18494513 128.3731582 102.16818866 121.87251282 102.14717102 C122.01299042 101.32596771 122.15346802 100.5047644 122.29820251 99.65867615 C122.4807962 98.57996246 122.66338989 97.50124878 122.85151672 96.3898468 C123.03324432 95.32114349 123.21497192 94.25244019 123.40220642 93.15135193 C124.88167513 83.70093476 124.82105949 74.57128559 119.87251282 66.14717102 C118.8748966 65.14479291 117.87538224 64.14429334 116.87251282 63.14717102 C116.87251282 62.48717102 116.87251282 61.82717102 116.87251282 61.14717102 C116.30647779 60.86794013 115.74044277 60.58870924 115.15725517 60.30101681 C113.65386932 59.54177346 112.16231763 58.75854801 110.68483162 57.95005894 C104.49166197 54.64342 98.63379181 52.86866433 91.76655579 51.5316925 C90.7050531 51.31305542 89.64355042 51.09441833 88.54988098 50.86915588 C86.2639277 50.40024795 83.97663986 49.93780753 81.68818283 49.48127556 C78.06148769 48.75764735 74.43869706 48.01672187 70.81639099 47.27145386 C63.12993134 45.69344001 55.43892016 44.13835738 47.74751282 42.58467102 C38.82322096 40.77928617 29.90097602 38.964458 20.98216629 37.13217354 C17.4211834 36.40480209 13.85758588 35.69143423 10.29362488 34.9788208 C8.10218168 34.53092714 5.91086032 34.0824368 3.71968079 33.633255 C2.24351791 33.34400902 2.24351791 33.34400902 0.73753357 33.04891968 C-6.14096993 31.61818314 -13.43954109 30.0454736 -17.62748718 23.95967102 C-19.64069092 19.76250074 -19.93287491 15.70566553 -19.12748718 11.14717102 C-17.5037876 6.85596498 -15.14348704 3.47904191 -11.12748718 1.14717102 C-7.38384912 -0.10070833 -3.89966408 -0.00091314 0 0 Z " fill="#086EB7" transform="translate(110.12748718261719,191.8528289794922)"/>
<path d="M0 0 C30 0 30 0 36.8125 6.3125 C39.05078125 10.203125 39.05078125 10.203125 40.02587891 12.16210938 C41.49553248 14.93492944 43.46076146 17.18982314 45.5 19.5625 C46.22445313 20.44292969 46.94890625 21.32335937 47.6953125 22.23046875 C52.53396273 28.04505013 57.43311964 33.80842651 62.33544922 39.56933594 C65.56875218 43.36969574 68.78915289 47.18064979 72 51 C72.52964355 51.6285791 73.05928711 52.2571582 73.60498047 52.90478516 C83.19156949 64.31072684 92.04034895 76.0537986 101 88 C101.33 58.96 101.66 29.92 102 0 C112.23 0 122.46 0 133 0 C133 47.19 133 94.38 133 143 C123.1 143 113.2 143 103 143 C100.36 139.7 97.72 136.4 95 133 C90.21991154 127.08217147 85.36465721 121.23300936 80.4375 115.4375 C76.63800633 110.96685774 72.92483977 106.44303545 69.28125 101.84375 C66.28882313 98.11346445 63.23601084 94.43448413 60.1875 90.75 C50.51458485 79.03898759 41.26303131 67.0419407 32 55 C32 84.04 32 113.08 32 143 C21.44 143 10.88 143 0 143 C0 95.81 0 48.62 0 0 Z " fill="#096AB5" transform="translate(1646,241)"/>
<path d="M0 0 C37.62 0 75.24 0 114 0 C114 9.24 114 18.48 114 28 C87.93 28 61.86 28 35 28 C35 37.24 35 46.48 35 56 C59.42 56 83.84 56 109 56 C109 65.24 109 74.48 109 84 C84.58 84 60.16 84 35 84 C35 93.9 35 103.8 35 114 C62.06 114 89.12 114 117 114 C117 123.57 117 133.14 117 143 C78.39 143 39.78 143 0 143 C0 95.81 0 48.62 0 0 Z " fill="#096AB5" transform="translate(1180,243)"/>
<path d="M0 0 C0.7528125 0.70898438 1.505625 1.41796875 2.28125 2.1484375 C2.28125 7.89935523 -0.33141192 11.81962652 -2.96875 16.8359375 C-3.45988281 17.81111328 -3.95101563 18.78628906 -4.45703125 19.79101562 C-5.18212891 21.18030273 -5.18212891 21.18030273 -5.921875 22.59765625 C-6.36176758 23.44674561 -6.80166016 24.29583496 -7.25488281 25.1706543 C-8.71875 27.1484375 -8.71875 27.1484375 -10.76318359 27.99780273 C-13.58083095 28.21484249 -14.79248553 27.11782892 -17.09375 25.5234375 C-30.80941852 16.82470968 -46.70808885 13.84339355 -62.71875 15.1484375 C-67.56886307 16.23999427 -72.08254136 17.32720305 -75.48046875 21.109375 C-77.26543313 24.04865389 -77.26058565 25.76196466 -76.71875 29.1484375 C-71.05683634 39.0567864 -57.20547382 41.02183978 -46.90625 43.84960938 C-44.62807398 44.46873204 -42.34903686 45.08451477 -40.06933594 45.69799805 C-23.456444 50.19150235 -5.92699769 55.11506952 4.28125 70.1484375 C9.47234423 80.35162272 9.05451453 92.05999492 6.3515625 102.95703125 C4.75033196 107.73150334 2.52082537 111.32321807 -0.71875 115.1484375 C-1.27175781 115.83421875 -1.82476563 116.52 -2.39453125 117.2265625 C-13.29974013 129.46281401 -30.74336665 133.63125064 -46.46875 135.0234375 C-69.95800869 135.9436827 -94.46149161 131.25699969 -112.53125 115.3359375 C-115.00202681 112.99759764 -116.82412243 110.99037886 -118.71875 108.1484375 C-118.54986201 103.36327777 -116.09857092 100.83424222 -113.03125 97.3359375 C-109.06018903 92.74026321 -105.27959796 88.06993468 -101.71875 83.1484375 C-101.24566406 83.51195312 -100.77257813 83.87546875 -100.28515625 84.25 C-83.33501442 97.13607273 -66.53560109 105.81344372 -44.49609375 103.86328125 C-39.73368517 103.10052671 -35.55476394 102.24199713 -31.71875 99.1484375 C-29.25896035 95.45875303 -28.92095529 92.4313354 -29.71875 88.1484375 C-36.74428733 78.48832368 -50.53666633 76.9257026 -61.42480469 74.2265625 C-69.56160534 72.19689285 -77.55852075 70.01405945 -85.4296875 67.1015625 C-86.0738562 66.86587555 -86.7180249 66.6301886 -87.38171387 66.38735962 C-98.20448133 62.23948714 -106.7020374 55.03485325 -111.53125 44.4609375 C-115.11777444 34.45642196 -115.27988047 22.53922702 -111.1015625 12.70703125 C-103.91444111 -0.59117359 -91.95704587 -8.12100785 -77.89453125 -12.7890625 C-51.59373913 -20.41885993 -22.36610319 -15.47169759 0 0 Z " fill="#096AB5" transform="translate(1432.71875,254.8515625)"/>
<path d="M0 0 C1.02424487 0.97515252 2.03494501 1.96623559 3 3 C1.41286243 8.5193155 -1.12240344 13.30887332 -3.875 18.3125 C-4.30941406 19.13556641 -4.74382812 19.95863281 -5.19140625 20.80664062 C-5.62066406 21.58845703 -6.04992187 22.37027344 -6.4921875 23.17578125 C-7.07009033 24.24179565 -7.07009033 24.24179565 -7.65966797 25.3293457 C-9 27 -9 27 -11.04931641 27.7902832 C-13.62438129 28.06712685 -14.43074408 27.3906392 -16.5 25.875 C-29.92758362 16.95630977 -46.04724123 13.62905979 -62 15 C-65.46446599 15.72912868 -68.70119245 16.72666029 -72 18 C-72.99 18.33 -73.98 18.66 -75 19 C-77.44384555 23.15453744 -77.16833694 26.41010489 -76 31 C-69.07555119 39.41787913 -55.41026858 41.13027648 -45.25543213 43.82278442 C-5.87062093 54.34000881 -5.87062093 54.34000881 5 72 C9.75899048 81.51798097 9.01838624 93.5288441 5.984375 103.4609375 C4.47633447 107.35072458 2.44354257 110.63626261 0 114 C-0.556875 114.845625 -1.11375 115.69125 -1.6875 116.5625 C-14.70129919 130.27974779 -34.10364799 134.44175917 -52.31640625 134.99609375 C-74.66652465 135.25213551 -96.06723154 128.98475085 -113 114 C-113.65613281 113.43796875 -114.31226563 112.8759375 -114.98828125 112.296875 C-116.6875 110.75 -116.6875 110.75 -119 108 C-118.5223046 103.51966156 -115.49489161 100.50057167 -112.75 97.125 C-112.27175781 96.52558594 -111.79351563 95.92617188 -111.30078125 95.30859375 C-108.25017932 91.49740814 -105.13524403 87.74169634 -102 84 C-98.15055415 85.33042251 -95.65006741 86.98616787 -92.625 89.6875 C-84.3803143 96.45331831 -73.68320658 101.79770987 -63 103 C-61.84757813 103.13148438 -60.69515625 103.26296875 -59.5078125 103.3984375 C-50.71120755 104.19491079 -41.29029567 104.9008589 -33.4375 100.125 C-30.4108268 97.54637691 -30.4108268 97.54637691 -29 94 C-29 89.56194944 -29.43064159 87.62775415 -32.4375 84.3125 C-41.30336648 77.90071783 -52.89091097 76.1017123 -63.32397461 73.57543945 C-94.78828976 65.91366194 -94.78828976 65.91366194 -105 54 C-105.75410156 53.17435547 -105.75410156 53.17435547 -106.5234375 52.33203125 C-112.59630504 45.14827331 -114.69261186 35.95052035 -114.34765625 26.63671875 C-113.14266832 17.49776534 -110.1957023 9.81678737 -104 3 C-103.54496094 2.41992188 -103.08992187 1.83984375 -102.62109375 1.2421875 C-93.64889394 -9.20585718 -76.94735054 -14.75959579 -63.609375 -15.87109375 C-41.02523128 -16.9867775 -18.53827755 -13.99690791 0 0 Z " fill="#096AB5" transform="translate(874,255)"/>
<path d="M0 0 C5.69215668 -0.27322046 11.38045598 -0.47207961 17.07763672 -0.60424805 C19.01223246 -0.65936059 20.94637417 -0.73428109 22.87939453 -0.82983398 C38.9023394 -1.601676 38.9023394 -1.601676 43.89111328 2.20751953 C45.95646606 5.04265438 47.48540174 7.8414381 49 11 C49.98654062 12.44404181 51.00257386 13.8686368 52.0546875 15.265625 C52.99612559 16.59280479 53.93622508 17.9209351 54.875 19.25 C55.37676758 19.96019287 55.87853516 20.67038574 56.39550781 21.40209961 C61.39721143 28.51305978 66.22180873 35.73757212 71 43 C75.28826857 38.98763106 78.61665487 34.60018423 82 29.8125 C83.14185702 28.21479367 84.28378635 26.61713903 85.42578125 25.01953125 C86.30290771 23.78710693 86.30290771 23.78710693 87.19775391 22.52978516 C90.18037493 18.34312584 93.18300785 14.17097692 96.1875 10 C96.73986328 9.22889893 97.29222656 8.45779785 97.86132812 7.66333008 C98.37501953 6.94943115 98.88871094 6.23553223 99.41796875 5.5 C99.86938232 4.8709375 100.3207959 4.241875 100.78588867 3.59375 C102 2 102 2 104 0 C107.08524939 -0.17553419 110.07964202 -0.23122797 113.1640625 -0.1953125 C114.52487442 -0.19106766 114.52487442 -0.19106766 115.91317749 -0.18673706 C118.81725123 -0.17552153 121.72101912 -0.15041463 124.625 -0.125 C126.59114139 -0.11497197 128.5572876 -0.10584581 130.5234375 -0.09765625 C135.34907659 -0.07557772 140.1744864 -0.04103865 145 0 C140.99564305 6.12447011 136.80897148 12.07057415 132.4375 17.9375 C127.73364958 24.28616698 123.05767262 30.65264512 118.4375 37.0625 C117.91220703 37.79098145 117.38691406 38.51946289 116.84570312 39.27001953 C114.64026141 42.33050857 112.43690326 45.39249182 110.234375 48.45507812 C109.04421306 50.10966195 107.85354583 51.76388244 106.66235352 53.41772461 C105.54447824 54.96977536 104.42770895 56.52262354 103.31225586 58.07641602 C102.80573486 58.77951904 102.29921387 59.48262207 101.77734375 60.20703125 C101.30409668 60.86654785 100.83084961 61.52606445 100.34326172 62.20556641 C99.16109869 63.78479183 97.87060375 65.2816744 96.56640625 66.76171875 C94.76124046 68.80922166 94.76124046 68.80922166 95.23535156 70.89746094 C96.08958595 73.24633276 97.16574456 74.88241612 98.66796875 76.87890625 C99.22427979 77.625354 99.78059082 78.37180176 100.35375977 79.14086914 C100.95889404 79.94000732 101.56402832 80.73914551 102.1875 81.5625 C103.47149052 83.28114814 104.75534081 84.99990105 106.0390625 86.71875 C106.6980957 87.59660156 107.35712891 88.47445312 108.03613281 89.37890625 C111.06689175 93.42393708 114.06550019 97.49242723 117.0625 101.5625 C117.92560791 102.73256592 117.92560791 102.73256592 118.80615234 103.92626953 C123.39052533 110.14892896 127.91991277 116.41016216 132.42871094 122.68774414 C136.35192754 128.13916211 140.37874132 133.50034784 144.48828125 138.8125 C146 141 146 141 146 143 C140.32622892 143.29839805 134.65708517 143.51513226 128.97729492 143.65917969 C127.04940206 143.71924972 125.12204974 143.80094339 123.19604492 143.90527344 C107.26287757 144.74624786 107.26287757 144.74624786 101.91918945 140.62255859 C99.58606138 137.52904208 97.78622469 134.43415771 96 131 C94.82965023 129.29675549 93.63445019 127.61020432 92.41015625 125.9453125 C91.29235221 124.33987583 90.1764729 122.73309737 89.0625 121.125 C87.86382237 119.40326898 86.6645996 117.68191736 85.46484375 115.9609375 C84.88331543 115.1265918 84.30178711 114.29224609 83.70263672 113.43261719 C79.84653661 107.92327083 75.9240208 102.46107963 72 97 C67.88128496 102.60872078 63.8003329 108.24111612 59.81274414 113.94384766 C58.79711565 115.37812334 57.76306282 116.79949875 56.71264648 118.20849609 C53.87804781 122.05664227 51.62182261 125.67368876 49.78125 130.09375 C47.13846174 135.74568071 44.7622693 140.15607729 39 143 C25.83018012 145.82253202 11.30674833 144.06848504 -2 143 C0.16769807 139.13115173 2.30524009 135.38641825 4.9609375 131.828125 C5.7809021 130.72295532 5.7809021 130.72295532 6.61743164 129.59545898 C7.1974292 128.82145752 7.77742676 128.04745605 8.375 127.25 C9.63158072 125.55864598 10.88808911 123.86723822 12.14453125 122.17578125 C12.78471191 121.31678223 13.42489258 120.4577832 14.08447266 119.57275391 C17.0894593 115.53674203 20.07699715 111.48793566 23.0625 107.4375 C23.63597168 106.66011475 24.20944336 105.88272949 24.80029297 105.08178711 C29.42978259 98.79686079 34.00938479 92.4767483 38.56274414 86.13647461 C39.30512329 85.1040564 39.30512329 85.1040564 40.0625 84.05078125 C40.77792969 83.046521 40.77792969 83.046521 41.5078125 82.02197266 C42.54792565 80.6125785 43.62994988 79.23357275 44.7421875 77.88037109 C45.30164063 77.19152832 45.86109375 76.50268555 46.4375 75.79296875 C46.95183594 75.18348389 47.46617187 74.57399902 47.99609375 73.94604492 C49.2154553 71.99495441 49.2154553 71.99495441 48.82910156 69.51367188 C47.96301392 66.88786552 46.96595245 65.18197984 45.296875 62.98828125 C44.73540771 62.2398999 44.17394043 61.49151855 43.59545898 60.72045898 C42.98645752 59.92583252 42.37745605 59.13120605 41.75 58.3125 C40.46401227 56.60218738 39.1788753 54.89123478 37.89453125 53.1796875 C37.24178223 52.3144043 36.5890332 51.44912109 35.91650391 50.55761719 C33.04062873 46.71969765 30.23620425 42.83187268 27.4375 38.9375 C26.36982956 37.45570186 25.30212113 35.9739311 24.234375 34.4921875 C23.70521484 33.75709961 23.17605469 33.02201172 22.63085938 32.26464844 C20.37981285 29.13879401 18.12525898 26.01547888 15.87011719 22.89257812 C14.76361573 21.36030158 13.6574852 19.8277571 12.55175781 18.29492188 C10.18034452 15.00917588 7.80473031 11.72699312 5.40625 8.4609375 C4.6740625 7.46320313 3.941875 6.46546875 3.1875 5.4375 C2.56230469 4.59058594 1.93710937 3.74367187 1.29296875 2.87109375 C0 1 0 1 0 0 Z " fill="#096AB5" transform="translate(475,243)"/>
<path d="M0 0 C1.04994141 -0.02900391 2.09988281 -0.05800781 3.18164062 -0.08789062 C4.19291016 -0.09626953 5.20417969 -0.10464844 6.24609375 -0.11328125 C7.16962646 -0.12786377 8.09315918 -0.14244629 9.04467773 -0.1574707 C12.44195141 0.4766563 13.44697732 1.59944221 15.5625 4.3125 C16.75874995 6.5835197 17.8150743 8.78548365 18.8203125 11.13671875 C19.27056793 12.15832092 19.27056793 12.15832092 19.72991943 13.20056152 C20.72463722 15.46327331 21.70597466 17.73153806 22.6875 20 C23.39381994 21.61342004 24.10103303 23.22644934 24.80908203 24.83911133 C26.30545997 28.2512562 27.7964216 31.66569422 29.28320312 35.08203125 C31.50484656 40.18502425 33.74238814 45.28091772 35.984375 50.375 C38.98023395 57.18402527 41.97124112 63.99514709 44.95703125 70.80859375 C48.09532128 77.96962509 51.23892556 85.12829725 54.38671875 92.28515625 C67.94694791 123.12032791 67.94694791 123.12032791 73.1875 135.3125 C73.54787354 136.1487793 73.90824707 136.98505859 74.27954102 137.84667969 C76.5625 143.18829756 76.5625 143.18829756 76.5625 144.3125 C65.0125 144.3125 53.4625 144.3125 41.5625 144.3125 C40.325 141.858125 39.0875 139.40375 37.8125 136.875 C37.43125977 136.12162354 37.05001953 135.36824707 36.65722656 134.59204102 C34.12600632 129.54967929 31.86038372 124.48273836 29.5625 119.3125 C-0.6325 118.8175 -0.6325 118.8175 -31.4375 118.3125 C-32.0975 120.2925 -32.7575 122.2725 -33.4375 124.3125 C-34.13389535 125.97681063 -34.8550069 127.63101517 -35.6015625 129.2734375 C-35.9620166 130.07056152 -36.3224707 130.86768555 -36.69384766 131.68896484 C-37.14550293 132.67848145 -37.5971582 133.66799805 -38.0625 134.6875 C-39.50625 137.86375 -40.95 141.04 -42.4375 144.3125 C-53.6575 144.3125 -64.8775 144.3125 -76.4375 144.3125 C-74.60064932 138.80194796 -72.92661794 133.89556993 -70.5390625 128.70703125 C-70.2683342 128.11425888 -69.9976059 127.52148651 -69.71867371 126.91075134 C-69.1388742 125.64168962 -68.55720335 124.37348141 -67.9737854 123.1060791 C-66.38403569 119.65005981 -64.81118522 116.18636762 -63.23828125 112.72265625 C-62.91617172 112.01378265 -62.59406219 111.30490906 -62.26219177 110.57455444 C-59.17811428 103.77127196 -56.20256924 96.92393811 -53.25 90.0625 C-47.08992465 75.75854734 -40.79946242 61.51375884 -34.48168945 47.27880859 C-30.74513301 38.85188496 -27.03385908 30.41752996 -23.4375 21.9296875 C-23.13380493 21.215849 -22.83010986 20.5020105 -22.51721191 19.76654053 C-21.11761021 16.47652658 -19.72780242 13.18315277 -18.35742188 9.88085938 C-17.87853516 8.75228516 -17.39964844 7.62371094 -16.90625 6.4609375 C-16.49826172 5.48302246 -16.09027344 4.50510742 -15.66992188 3.49755859 C-12.86055391 -1.48339292 -5.04940278 0.0463248 0 0 Z M-0.4375 47.3125 C-3.00349514 53.27455395 -5.56670014 59.23780156 -8.12792969 65.2019043 C-9.00032726 67.23245682 -9.87337326 69.26273088 -10.74707031 71.29272461 C-11.99973701 74.2035414 -13.25010039 77.1153379 -14.5 80.02734375 C-14.89372803 80.9408812 -15.28745605 81.85441864 -15.69311523 82.79563904 C-16.05348877 83.63643509 -16.4138623 84.47723114 -16.78515625 85.34350586 C-17.10492432 86.08741074 -17.42469238 86.83131561 -17.75415039 87.59776306 C-18.49920029 89.15967782 -18.49920029 89.15967782 -18.4375 90.3125 C-6.8875 90.3125 4.6625 90.3125 16.5625 90.3125 C14.73891688 84.23388959 12.92549831 78.29621396 10.71484375 72.37109375 C10.4574794 71.67734146 10.20011505 70.98358917 9.93495178 70.26881409 C9.39804853 68.82562359 8.8594224 67.38307291 8.3190918 65.94116211 C7.49098104 63.72587327 6.67411364 61.50662948 5.85742188 59.28710938 C5.33140724 57.87735098 4.80473901 56.46783623 4.27734375 55.05859375 C3.91321632 54.06345009 3.91321632 54.06345009 3.54173279 53.04820251 C2.37876121 49.50157052 2.37876121 49.50157052 -0.4375 47.3125 Z " fill="#0B68B3" transform="translate(962.4375,241.6875)"/>
<path d="M0 0 C7.7154304 7.25990684 10.81859619 14.61271315 11.1796875 25.1171875 C11.25616125 33.69796074 8.71718293 40.63531346 2.99609375 47.0859375 C-1.0442021 50.75729765 -5.65806867 54.1171875 -11.2578125 54.1171875 C-11.2578125 54.7771875 -11.2578125 55.4371875 -11.2578125 56.1171875 C-10.3090625 56.1584375 -9.3603125 56.1996875 -8.3828125 56.2421875 C-1.46891537 57.26594914 4.75678403 61.43973539 9.1171875 66.8046875 C15.30891513 76.07468881 17.23842999 85.79511148 15.26953125 96.74609375 C12.38392383 107.78742992 5.73254433 117.5277739 -3.828125 123.8046875 C-25.29644812 136.03735025 -50.56576506 137.1074067 -74.2578125 131.1171875 C-86.3653385 127.54769009 -96.83209018 121.57815215 -105.2578125 112.1171875 C-103.62453702 108.11085882 -100.81496928 105.27002642 -97.8828125 102.1796875 C-94.51366122 98.59883821 -91.27914051 95.00482046 -88.2578125 91.1171875 C-84.92804492 91.74999401 -82.69565816 93.00475726 -79.8828125 94.8671875 C-66.42345316 103.15447849 -49.47299869 106.84265679 -33.87890625 103.36328125 C-27.73772793 101.23266836 -23.11147914 98.83589857 -19.3828125 93.3671875 C-17.62417763 88.28668677 -18.56077055 84.20831335 -20.2578125 79.1171875 C-21.90411443 77.99783677 -21.90411443 77.99783677 -24.2578125 77.1171875 C-25.44955078 76.6121167 -26.64128906 76.1070459 -27.86914062 75.58666992 C-32.26958829 73.94752309 -36.25152322 73.64539723 -40.9140625 73.60546875 C-41.70180054 73.58751755 -42.48953857 73.56956635 -43.30114746 73.55107117 C-45.78664999 73.49742445 -48.2719657 73.46322134 -50.7578125 73.4296875 C-52.45575492 73.39647393 -54.15367282 73.3619806 -55.8515625 73.32617188 C-59.98699921 73.23934386 -64.12162156 73.17888994 -68.2578125 73.1171875 C-68.2578125 64.5371875 -68.2578125 55.9571875 -68.2578125 47.1171875 C-64.5453125 47.0140625 -60.8328125 46.9109375 -57.0078125 46.8046875 C-40.53572794 46.51657486 -40.53572794 46.51657486 -26.5625 38.71484375 C-24.30726257 35.95319073 -23.3231007 33.73089655 -22.9453125 30.1796875 C-23.32865158 26.42296456 -23.7588576 24.98363577 -26.2578125 22.1171875 C-37.27636347 15.21844748 -49.30957831 14.69457151 -61.8828125 17.2421875 C-68.92788947 19.03547982 -75.74496773 22.03743319 -81.25390625 26.8671875 C-83.2578125 28.1171875 -83.2578125 28.1171875 -85.6315918 27.91137695 C-90.35279804 26.48364767 -93.24222068 22.74646943 -96.6328125 19.3046875 C-97.38175781 18.57958984 -98.13070312 17.85449219 -98.90234375 17.10742188 C-99.60488281 16.40294922 -100.30742188 15.69847656 -101.03125 14.97265625 C-101.67497559 14.32965576 -102.31870117 13.68665527 -102.98193359 13.02416992 C-104.2578125 11.1171875 -104.2578125 11.1171875 -104.04199219 8.97875977 C-100.47622631 0.51395128 -88.23817885 -4.36662082 -80.2578125 -7.8828125 C-55.19978295 -17.31086136 -21.39318005 -17.83998751 0 0 Z " fill="#096AB5" transform="translate(727.2578125,253.8828125)"/>
<path d="M0 0 C12.54 0 25.08 0 38 0 C46.83817602 18.25908892 55.5292069 36.56739579 64 55 C64.43860352 55.95052246 64.87720703 56.90104492 65.32910156 57.88037109 C69.46415637 66.85483899 73.44417169 75.86583844 77.0625 85.0625 C77.3620459 85.81934082 77.6615918 86.57618164 77.97021484 87.35595703 C79.13265211 90.37522937 80 92.73603313 80 96 C80.66 96 81.32 96 82 96 C82.17228622 95.45758163 82.34457245 94.91516327 82.52207947 94.35630798 C84.35885323 88.69633685 86.4836854 83.22591422 88.81640625 77.75390625 C89.18553131 76.88061676 89.55465637 76.00732727 89.93496704 75.10757446 C91.14071832 72.2577509 92.35148465 69.41009015 93.5625 66.5625 C94.40360522 64.57796711 95.24450402 62.59334672 96.08520508 60.60864258 C104.66155049 40.37933286 113.3222147 20.18595936 122 0 C133.88 0 145.76 0 158 0 C155.08509074 7.57876408 152.230341 14.98578074 148.84765625 22.33203125 C148.47133057 23.15823975 148.09500488 23.98444824 147.70727539 24.83569336 C146.90810902 26.58985699 146.10739528 28.34331642 145.3052063 30.09609985 C143.16302627 34.77863678 141.03452712 39.46738122 138.90625 44.15625 C138.48134781 45.0920137 138.05644562 46.0277774 137.6186676 46.99189758 C134.03204122 54.90295349 130.52465607 62.84631957 127.0625 70.8125 C121.25174863 84.17454837 115.35740243 97.49844952 109.4375 110.8125 C109.00357941 111.78893463 108.56965881 112.76536926 108.12258911 113.77139282 C106.87272316 116.5835541 105.62208656 119.39537109 104.37109375 122.20703125 C104.00390228 123.03291748 103.63671082 123.85880371 103.25839233 124.7097168 C100.53675018 130.82132308 97.76866713 136.90893232 95 143 C85.76 143 76.52 143 67 143 C60.42444785 129.41534281 53.88537896 115.82862983 47.5625 102.125 C42.85369023 91.92246011 38.02373143 81.78500996 33.11502075 71.67779541 C28.26999293 61.69613855 23.56524407 51.65441281 18.9230957 41.57666016 C16.02880413 35.31198669 13.08782221 29.07519409 10.07421875 22.8671875 C9.74845856 22.19584778 9.42269836 21.52450806 9.08706665 20.83282471 C7.50334065 17.57283173 5.91353696 14.31594573 4.31640625 11.0625 C3.75179688 9.90492188 3.1871875 8.74734375 2.60546875 7.5546875 C2.10168701 6.52843262 1.59790527 5.50217773 1.07885742 4.44482422 C0 2 0 2 0 0 Z " fill="#086CB6" transform="translate(1479,241)"/>
<path d="M0 0 C11.22 0 22.44 0 34 0 C34 36.63 34 73.26 34 111 C60.4 111 86.8 111 114 111 C114 121.56 114 132.12 114 143 C76.38 143 38.76 143 0 143 C0 95.81 0 48.62 0 0 Z " fill="#0B66B1" transform="translate(1052,243)"/>
<path d="M0 0 C2.97 0 5.94 0 9 0 C22.08827121 23.78877436 22.08827121 23.78877436 27 34 C29.38247997 31.01718595 31.10537817 27.9982943 32.77734375 24.5703125 C33.29103516 23.52746094 33.80472656 22.48460937 34.33398438 21.41015625 C35.39916356 19.2279012 36.46426827 17.0456098 37.52929688 14.86328125 C38.99197389 11.893992 40.49234175 8.94661581 42 6 C42.31469238 5.30874023 42.62938477 4.61748047 42.95361328 3.90527344 C43.81640625 2.2421875 43.81640625 2.2421875 46 0 C48.97 0 51.94 0 55 0 C55 17.49 55 34.98 55 53 C52.36 53 49.72 53 47 53 C46.67 41.12 46.34 29.24 46 17 C41.05 26.9 36.1 36.8 31 47 C28.69 47 26.38 47 24 47 C18.72 36.77 13.44 26.54 8 16 C7.67 28.21 7.34 40.42 7 53 C4.69 53 2.38 53 0 53 C0 35.51 0 18.02 0 0 Z " fill="#008145" transform="translate(730,430)"/>
<path d="M0 0 C4.89229053 2.87398816 8.94191573 6.98148771 11.4921875 12.08203125 C11.99457798 17.5836188 12.25424481 22.46998694 9.8671875 27.51953125 C4.53298238 33.27485783 -0.14222808 37.04212531 -8.1953125 37.51953125 C-15.05121537 37.33561731 -20.59221203 34.98020782 -25.46875 30.1328125 C-29.17473805 25.28718963 -30.45682329 20.88190787 -30.08984375 14.796875 C-28.75881274 8.58837466 -25.23597536 4.55817036 -20.5078125 0.51953125 C-14.47690626 -2.38175104 -6.19304882 -2.26692597 0 0 Z " fill="#096BB5" transform="translate(1485.5078125,348.91796875)"/>
<path d="M0 0 C33.42740286 0 33.42740286 0 42 8 C47.30895075 14.97078617 49.57669566 21.20539125 49 30 C47.65940743 37.52699684 44.83215996 42.989434 39 48 C33.04524689 51.83281683 27.75856295 53.13093662 20.703125 53.09765625 C19.61676758 53.09515869 18.53041016 53.09266113 17.41113281 53.09008789 C16.03795898 53.08098389 14.66478516 53.07187988 13.25 53.0625 C6.69125 53.0315625 6.69125 53.0315625 0 53 C0 35.51 0 18.02 0 0 Z M8 8 C8 20.54 8 33.08 8 46 C23.95693262 46.50628545 23.95693262 46.50628545 36.3359375 38.94921875 C40.22526067 34.39341532 40.49563525 29.56325724 40.37890625 23.7890625 C39.5670229 17.81293145 36.52196753 14.18713468 31.875 10.5625 C23.41929651 5.96700897 20.55095802 8 8 8 Z " fill="#008145" transform="translate(473,430)"/>
<path d="M0 0 C1.91015625 1.10546875 1.91015625 1.10546875 4.72265625 3.10546875 C5.05265625 1.78546875 5.38265625 0.46546875 5.72265625 -0.89453125 C8.36265625 -0.89453125 11.00265625 -0.89453125 13.72265625 -0.89453125 C13.77238542 4.22833875 13.8085307 9.35106577 13.83251953 14.47412109 C13.84252843 16.21405487 13.85613968 17.95397205 13.87353516 19.69384766 C13.89800979 22.2060966 13.90919065 24.71812163 13.91796875 27.23046875 C13.92829132 27.9985083 13.93861389 28.76654785 13.94924927 29.55786133 C13.95058805 36.11755281 13.23032733 41.82242397 9.53515625 47.41796875 C3.27526344 53.3996441 -2.38055486 53.62963586 -10.80859375 53.4765625 C-15.51541382 52.97301756 -19.22912571 51.50441278 -23.27734375 49.10546875 C-22.40234375 44.35546875 -22.40234375 44.35546875 -21.27734375 42.10546875 C-20.07078125 42.53859375 -20.07078125 42.53859375 -18.83984375 42.98046875 C-17.66421875 43.35171875 -16.48859375 43.72296875 -15.27734375 44.10546875 C-14.57738281 44.33105469 -13.87742187 44.55664062 -13.15625 44.7890625 C-8.25361921 46.15704094 -4.65810454 46.39214137 0.05859375 44.296875 C3.1026941 42.11741348 3.70868789 39.65435802 4.72265625 36.10546875 C4.72265625 35.11546875 4.72265625 34.12546875 4.72265625 33.10546875 C3.79453125 33.76546875 2.86640625 34.42546875 1.91015625 35.10546875 C-2.97788263 37.89721453 -7.79716124 37.7770191 -13.27734375 37.10546875 C-18.47294085 35.37360305 -21.1790392 32.58079754 -24.27734375 28.10546875 C-26.90959072 21.21148859 -27.17912009 14.87377277 -24.3984375 8.03515625 C-19.4512208 -0.48026205 -9.1155842 -3.58056395 0 0 Z M-14.27734375 8.10546875 C-17.169596 11.29436226 -18.52511627 13.85014705 -18.77734375 18.10546875 C-18.53422208 22.34388991 -17.10937384 24.90080312 -14.27734375 28.10546875 C-10.83328755 30.4780408 -8.90629801 31.10546875 -4.71484375 31.10546875 C-0.48355393 29.87454808 1.09436726 28.63488539 3.72265625 25.10546875 C5.73776247 20.79921436 6.11280922 17.32177762 4.59765625 12.79296875 C3.17341884 9.6210863 1.93688155 7.6666639 -1.27734375 6.10546875 C-6.47287338 4.48908176 -9.6044459 5.42287924 -14.27734375 8.10546875 Z " fill="#008145" transform="translate(572.27734375,443.89453125)"/>
<path d="M0 0 C1.62890625 1.10546875 1.62890625 1.10546875 3.87890625 3.10546875 C4.20890625 1.78546875 4.53890625 0.46546875 4.87890625 -0.89453125 C7.51890625 -0.89453125 10.15890625 -0.89453125 12.87890625 -0.89453125 C12.95325617 4.83460678 13.00760297 10.56346176 13.04370117 16.29296875 C13.05875524 18.24060969 13.07920305 20.18821691 13.10522461 22.13574219 C13.14175678 24.94084003 13.15866658 27.74548829 13.171875 30.55078125 C13.18735886 31.41663849 13.20284271 32.28249573 13.21879578 33.17459106 C13.2204351 39.10987378 12.33360215 43.44435524 8.16015625 47.96875 C7.57234375 48.44699219 6.98453125 48.92523438 6.37890625 49.41796875 C5.4971875 50.15466797 5.4971875 50.15466797 4.59765625 50.90625 C-0.84706271 54.70517891 -8.77768772 53.6121516 -15.12109375 53.10546875 C-18.24632552 52.09462401 -20.35047189 50.91485446 -23.12109375 49.10546875 C-23.12109375 45.10546875 -23.12109375 45.10546875 -21.12109375 42.10546875 C-20.48171875 42.39421875 -19.84234375 42.68296875 -19.18359375 42.98046875 C-12.38715708 45.47711895 -7.09711709 47.03539855 -0.12109375 44.10546875 C1.87890625 43.10546875 1.87890625 43.10546875 2.87890625 41.10546875 C3.4151372 38.42431402 3.65464788 35.84142091 3.87890625 33.10546875 C3.28078125 33.57984375 2.68265625 34.05421875 2.06640625 34.54296875 C-2.79063231 38.012282 -8.38804051 37.77902419 -14.12109375 37.10546875 C-18.79584656 35.44918216 -22.07180882 32.79769865 -24.62109375 28.54296875 C-27.13553738 22.60484072 -27.25609075 15.84428239 -25.390625 9.69921875 C-23.4461987 5.44529018 -21.11312937 2.66446594 -17.12109375 0.10546875 C-11.90012717 -1.63485344 -5.15777509 -2.17519428 0 0 Z M-16.99609375 9.79296875 C-19.4430694 14.82286315 -19.5548664 18.71283026 -17.93359375 23.91796875 C-16.1482584 27.05769643 -15.3095286 28.51125133 -12.12109375 30.10546875 C-8.154248 31.13391024 -5.83921733 31.34484328 -1.93359375 30.04296875 C1.8666033 27.42505523 4.34994988 24.80962324 5.26171875 20.1484375 C5.47633136 16.40702429 4.93831603 14.23141748 3.31640625 10.79296875 C0.28439182 7.44997848 -1.87093292 6.52218903 -6.12109375 5.10546875 C-10.20214138 5.10546875 -14.00883258 7.10443369 -16.99609375 9.79296875 Z " fill="#008145" transform="translate(1073.12109375,443.89453125)"/>
<path d="M0 0 C1.91015625 1.10546875 1.91015625 1.10546875 4.72265625 3.10546875 C4.72265625 1.78546875 4.72265625 0.46546875 4.72265625 -0.89453125 C7.36265625 -0.89453125 10.00265625 -0.89453125 12.72265625 -0.89453125 C12.8218828 4.95869049 12.89429388 10.81141752 12.94238281 16.6652832 C12.96243962 18.65462783 12.9896921 20.64391393 13.02441406 22.63305664 C13.07319396 25.50031006 13.09568452 28.36678086 13.11328125 31.234375 C13.13392639 32.11694473 13.15457153 32.99951447 13.17584229 33.90882874 C13.1779728 39.83474937 12.18785637 43.25785835 8.72265625 48.10546875 C1.45391328 53.74245309 -5.3261747 53.8513995 -14.27734375 53.10546875 C-17.51382889 52.11461969 -20.3688388 50.82902724 -23.27734375 49.10546875 C-22.40234375 44.35546875 -22.40234375 44.35546875 -21.27734375 42.10546875 C-20.34921875 42.53859375 -20.34921875 42.53859375 -19.40234375 42.98046875 C-13.53134626 45.09402785 -7.90082399 47.04393659 -1.77734375 44.98046875 C1.64637742 43.4301242 1.64637742 43.4301242 3.22265625 41.29296875 C3.85752944 38.51539856 3.85167489 35.94387889 3.72265625 33.10546875 C2.95953125 33.76546875 2.19640625 34.42546875 1.41015625 35.10546875 C-3.12145216 38.13012899 -8.04099536 37.73851982 -13.27734375 37.10546875 C-18.47708109 35.37222297 -21.13917969 32.55120117 -24.27734375 28.10546875 C-26.81389683 22.66999787 -27.40502046 16.68071651 -25.58984375 10.92578125 C-23.38017736 6.0461013 -20.64159637 3.16973123 -16.27734375 0.10546875 C-11.14367908 -1.60575281 -5.10429794 -2.00494722 0 0 Z M-16.65234375 10.16796875 C-19.03419214 14.47361777 -19.17000222 18.29588648 -18.27734375 23.10546875 C-16.55997901 26.54723661 -14.1561866 28.58717681 -10.83984375 30.54296875 C-7.51851999 31.27203982 -5.54199815 31.10485275 -2.27734375 30.10546875 C0.58524178 28.20151651 3.15856164 26.23365797 4.72265625 23.10546875 C5.23302712 19.05166586 5.61540166 14.92800295 3.78125 11.18359375 C1.24966332 7.97744635 -1.35139683 6.13861268 -5.27734375 5.10546875 C-10.02152497 5.10546875 -13.12169126 7.10187579 -16.65234375 10.16796875 Z " fill="#008145" transform="translate(1190.27734375,443.89453125)"/>
<path d="M0 0 C0.495 0.99 0.495 0.99 1 2 C-0.4375 4.625 -0.4375 4.625 -2 7 C-3.155 6.67 -4.31 6.34 -5.5 6 C-11.07165541 4.63169593 -15.78502212 4.20595133 -21.3125 6.1875 C-24.40334874 8.27202589 -25.55246486 9.57162731 -27 13 C-27.50802389 15.679577 -27.76901569 18.27438512 -28 21 C-27.21625 20.360625 -26.4325 19.72125 -25.625 19.0625 C-20.44334762 14.9912017 -15.40710723 15.53875537 -9 16 C-3.61076351 17.82849095 -0.53891794 20.92216411 2 26 C2.64963655 33.61459233 3.01472424 39.95661438 -2 46 C-7.2879595 50.38788129 -12.06447623 50.62005021 -18.83984375 50.37890625 C-24.10207114 49.74795933 -27.8243839 48.25371514 -31.5234375 44.421875 C-37.6565369 36.55165497 -37.66400816 27.60669865 -37 18 C-35.86829021 10.49985055 -32.85311819 4.89128313 -27 0 C-18.65404004 -5.04837089 -8.63119027 -3.7333323 0 0 Z M-26 27 C-27.86441858 29.54238897 -28.00519602 30.75578696 -27.9375 33.9375 C-26.76831519 37.75683706 -25.0082696 39.43196498 -22 42 C-18.75796421 43.62101789 -15.50394545 43.55907107 -12 43 C-8.73749863 41.10181738 -6.61264713 39.70715156 -5.3046875 36.0625 C-4.67199642 32.50866077 -4.79413118 30.47349829 -6.25 27.125 C-8.3428175 24.58372161 -9.99126624 23.14703577 -13.3046875 22.6640625 C-18.7989286 22.5805634 -22.13522162 22.65212433 -26 27 Z " fill="#008145" transform="translate(1777,433)"/>
<path d="M0 0 C5.09211391 4.54080236 8.49632359 9.13471226 9.21728516 16.09887695 C10.29604582 36.93493931 10.29604582 36.93493931 3.57421875 44.6328125 C-1.45520681 49.18138859 -6.31398278 50.29092503 -12.9375 50.3125 C-14.12214844 50.32925781 -15.30679687 50.34601563 -16.52734375 50.36328125 C-21.92122668 49.79901678 -25.80411637 47.80928727 -29.25 43.625 C-35.25288189 36.14882595 -35.67730743 27.2852692 -35 18 C-33.83602216 11.08945442 -32.18340148 5.82176882 -27 1 C-18.76909967 -3.87134918 -8.4611846 -5.17645643 0 0 Z M-23 8 C-25.75831879 13.26647979 -26.51942021 17.53263842 -26.4375 23.4375 C-26.43137695 24.18596191 -26.42525391 24.93442383 -26.41894531 25.70556641 C-26.22806017 32.42912844 -24.91657847 36.88227819 -20.1875 41.9375 C-15.65770441 44.13768643 -12.14939629 44.31170069 -7.3125 43 C-2.76284196 40.25303665 -1.05079543 37.28548706 0.5859375 32.16796875 C2.09166023 24.28423183 1.80427102 16.10130591 -2 9 C-4.53196804 6.10632224 -6.34771595 4.33460232 -10.1796875 3.55859375 C-15.5212225 3.27982677 -18.98457734 4.27139324 -23 8 Z " fill="#008145" transform="translate(1696,433)"/>
<path d="M0 0 C2.64 0 5.28 0 8 0 C13.10877449 9.95387681 17.82601959 20.04685401 22.36401367 30.2722168 C23.45435122 32.72541429 24.55414281 35.1742385 25.65429688 37.62304688 C26.35213339 39.18985002 27.04942042 40.75689805 27.74609375 42.32421875 C28.23812538 43.4162989 28.23812538 43.4162989 28.74009705 44.53044128 C30.05800072 47.51972382 31 49.69557038 31 53 C28.03 53 25.06 53 22 53 C19.525 47.06 19.525 47.06 17 41 C4.13 40.505 4.13 40.505 -9 40 C-9.99 42.97 -10.98 45.94 -12 49 C-12.66 50.32 -13.32 51.64 -14 53 C-16.97 53 -19.94 53 -23 53 C-21.27568585 47.33884459 -18.87851322 42.03177548 -16.46484375 36.640625 C-16.02612442 35.65503601 -15.58740509 34.66944702 -15.13539124 33.6539917 C-13.73870248 30.51815768 -12.33809876 27.38408928 -10.9375 24.25 C-9.99129065 22.12641159 -9.04532442 20.00271484 -8.09960938 17.87890625 C-6.37373071 14.0062029 -4.64755554 10.13363512 -2.91772461 6.26269531 C-2.57067978 5.4858136 -2.22363495 4.70893188 -1.86607361 3.9085083 C-1.26947906 2.59383292 -0.64564641 1.29129282 0 0 Z M3 11 C0.03 18.26 -2.94 25.52 -6 33 C0.6 33 7.2 33 14 33 C11.786663 27.63037523 11.786663 27.63037523 9.57275391 22.26098633 C8.02937811 18.51475998 6.49437731 14.76613272 5 11 C4.34 11 3.68 11 3 11 Z " fill="#008145" transform="translate(1133,430)"/>
<path d="M0 0 C-0.875 5.75 -0.875 5.75 -2 8 C-4.614889 7.55173331 -6.89015239 7.04855449 -9.32421875 5.97265625 C-12.27342944 4.9006074 -14.49890567 4.76513493 -17.625 4.8125 C-18.56601563 4.81894531 -19.50703125 4.82539063 -20.4765625 4.83203125 C-23.12600912 4.90171342 -23.12600912 4.90171342 -26 6 C-26.41809201 8.83151973 -26.41809201 8.83151973 -26 12 C-21.66335367 16.33664633 -16.56337073 17.78367793 -10.8828125 19.62304688 C-5.62811398 21.44236231 -1.59788386 23.80423228 1 29 C2.17736029 39.29349286 2.17736029 39.29349286 -1.0625 43.5 C-7.62969753 49.08910428 -12.98928742 49.54023083 -21.48046875 49.359375 C-28.28770012 48.66429699 -33.6683701 46.20981637 -39 42 C-37.125 36.25 -37.125 36.25 -36 34 C-34.02350466 34.97512934 -32.06651666 35.96296867 -30.140625 37.03515625 C-24.94684588 39.85739573 -19.99853556 41.94174003 -13.9765625 40.5234375 C-11.24502042 39.50886473 -9.3661805 38.66774092 -7.9375 36.0625 C-8.01583163 33.47755605 -8.61025551 32.1806039 -10 30 C-11.99883403 28.80948326 -11.99883403 28.80948326 -14.39453125 28.03515625 C-15.26787109 27.70966797 -16.14121094 27.38417969 -17.04101562 27.04882812 C-17.95560547 26.72333984 -18.87019531 26.39785156 -19.8125 26.0625 C-30.97461775 22.08684207 -30.97461775 22.08684207 -35 17 C-36.56311512 12.31065463 -36.52321579 8.48244475 -34.875 3.8125 C-26.9055201 -8.14171985 -11.2159154 -5.0347997 0 0 Z " fill="#008145" transform="translate(1439,434)"/>
<path d="M0 0 C2.64 0 5.28 0 8 0 C8.33 10.89 8.66 21.78 9 33 C13.51772913 28.15393272 13.51772913 28.15393272 18.03466797 23.30712891 C18.59814941 22.70304199 19.16163086 22.09895508 19.7421875 21.4765625 C20.3182373 20.85861816 20.89428711 20.24067383 21.48779297 19.60400391 C24.87595457 16.01016766 24.87595457 16.01016766 27.3828125 15.8046875 C28.28773438 15.82789063 29.19265625 15.85109375 30.125 15.875 C31.03507813 15.89304687 31.94515625 15.91109375 32.8828125 15.9296875 C33.58148437 15.95289063 34.28015625 15.97609375 35 16 C31.09489511 21.50719921 26.90282356 26.35827355 22 31 C23.27197862 34.44007259 24.74263149 37.33688047 26.8203125 40.35546875 C27.62275391 41.53592773 27.62275391 41.53592773 28.44140625 42.74023438 C28.99699219 43.54783203 29.55257812 44.35542969 30.125 45.1875 C31.23597017 46.80310994 32.34295861 48.42146756 33.4453125 50.04296875 C33.93531738 50.75477295 34.42532227 51.46657715 34.93017578 52.19995117 C36 54 36 54 36 56 C32.77765842 56.73845328 30.20166714 56.90201768 27 56 C23.71248444 52.71248444 21.37373724 48.97950066 19 45 C18.43023438 44.09636719 17.86046875 43.19273437 17.2734375 42.26171875 C16 40 16 40 16 38 C13.18763584 39.67420112 10.99139118 41.38629908 9 44 C8.10175552 48.01147817 7.95353793 51.89806268 8 56 C5.36 56 2.72 56 0 56 C0 37.52 0 19.04 0 0 Z " fill="#008145" transform="translate(869,427)"/>
<path d="M0 0 C3.69360993 3.11040836 4.7956439 5.29703247 5.375 10.125 C4.4934314 19.23454221 -2.03355875 25.66103685 -8.1875 31.9375 C-8.91130859 32.69095703 -9.63511719 33.44441406 -10.38085938 34.22070312 C-12.8983673 36.8365695 -15.43284812 39.43284812 -18 42 C-5.13 42.495 -5.13 42.495 8 43 C8 45.31 8 47.62 8 50 C-4.54 50 -17.08 50 -30 50 C-30 42 -30 42 -28.13574219 39.25927734 C-27.28141602 38.4595752 -26.42708984 37.65987305 -25.546875 36.8359375 C-24.61746094 35.94132812 -23.68804688 35.04671875 -22.73046875 34.125 C-21.73793094 33.20730287 -20.74443279 32.29064336 -19.75 31.375 C-17.81989065 29.55790069 -15.90200816 27.72878529 -13.984375 25.8984375 C-12.69611816 24.70226807 -12.69611816 24.70226807 -11.38183594 23.48193359 C-7.62712705 19.56943149 -5.10461743 16.62157014 -4.75 11.125 C-4.8325 10.09375 -4.915 9.0625 -5 8 C-10.11195955 5.17210748 -13.12546837 4.64217319 -18.77734375 6.18359375 C-22.13836644 7.4181346 -24.98370868 9.07470767 -28 11 C-29.625 8.75 -29.625 8.75 -31 6 C-30.16389962 3.46739361 -29.40813863 2.27827634 -27.1953125 0.76953125 C-26.51210937 0.45371094 -25.82890625 0.13789063 -25.125 -0.1875 C-24.44695312 -0.51105469 -23.76890625 -0.83460938 -23.0703125 -1.16796875 C-15.3316008 -4.27805477 -7.27038623 -4.07141629 0 0 Z " fill="#008145" transform="translate(1647,433)"/>
<path d="M0 0 C3.75573943 2.76738695 5.51614767 5.19211097 6.375 9.75 C6.45673345 11.99353937 6.48250277 14.23936892 6.47265625 16.484375 C6.46943359 17.77988281 6.46621094 19.07539063 6.46289062 20.41015625 C6.45453598 21.77343817 6.44607104 23.13671942 6.4375 24.5 C6.43248168 25.87890465 6.42791935 27.25781104 6.42382812 28.63671875 C6.41204093 32.00785659 6.39558635 35.37890628 6.375 38.75 C3.735 38.75 1.095 38.75 -1.625 38.75 C-1.955 37.76 -2.285 36.77 -2.625 35.75 C-3.3675 36.245 -4.11 36.74 -4.875 37.25 C-9.80104842 39.70129552 -15.2799999 39.41629453 -20.625 38.75 C-23.86348891 37.54021966 -25.85428014 35.73091619 -28 33 C-29.28416889 28.37699199 -29.2598239 24.33705974 -27.5 19.9375 C-24.73724316 16.71428369 -21.73539924 14.98188337 -17.44970703 14.51098633 C-15.04292502 14.45568389 -12.65617084 14.48766694 -10.25 14.5625 C-9.00283203 14.58280273 -9.00283203 14.58280273 -7.73046875 14.60351562 C-5.69502934 14.63860941 -3.65992709 14.69240772 -1.625 14.75 C-3.4422183 9.39854361 -3.4422183 9.39854361 -7.75 6.125 C-12.71467074 5.64454799 -16.08558232 6.89376525 -20.625 8.75 C-21.615 9.08 -22.605 9.41 -23.625 9.75 C-25.1875 7.9375 -25.1875 7.9375 -26.625 5.75 C-25.625 2.75 -25.625 2.75 -24.015625 1.58203125 C-16.31138556 -2.08732366 -8.12751263 -2.80259056 0 0 Z M-20.625 23.75 C-21.86102403 26.57334576 -21.86102403 26.57334576 -21.125 28.8125 C-18.76275169 31.8637374 -16.34779633 32.12953394 -12.625 32.75 C-7.60926118 31.84716701 -4.77147435 29.72936461 -1.625 25.75 C-1.44751744 23.13770284 -1.44751744 23.13770284 -1.625 20.75 C-3.85355574 20.6685778 -6.08297655 20.61061921 -8.3125 20.5625 C-9.55386719 20.52769531 -10.79523437 20.49289062 -12.07421875 20.45703125 C-15.85440916 20.76892815 -17.67889608 21.40514178 -20.625 23.75 Z " fill="#008145" transform="translate(671.625,444.25)"/>
<path d="M0 0 C4.62883443 2.70416315 6.34516116 6.45416634 8.25 11.375 C8.65373601 14.70582208 8.5 18.0822983 8.5 21.4375 C-1.4 21.7675 -11.3 22.0975 -21.5 22.4375 C-18.63695217 27.20924638 -17.31231249 29.31257501 -12.3125 31.3125 C-8.71728066 31.47228753 -6.03037978 30.4678315 -2.68359375 29.2265625 C-0.63736743 28.48713904 1.38198791 27.92738035 3.5 27.4375 C4.49 29.0875 5.48 30.7375 6.5 32.4375 C5.42250558 33.25772749 4.33770492 34.06836169 3.25 34.875 C2.64671875 35.32746094 2.0434375 35.77992188 1.421875 36.24609375 C-3.85825622 39.51934583 -10.52065059 38.96712145 -16.5 38.4375 C-21.60580202 37.12553451 -24.55719876 34.82341325 -27.4375 30.4375 C-30.70299278 24.76993287 -31.49877425 18.70784975 -30.00390625 12.31640625 C-28.05248114 6.48418092 -24.9651811 3.18116468 -19.9375 -0.375 C-13.48421312 -2.60431729 -6.33604201 -2.75273735 0 0 Z M-17.5 6.4375 C-20.56623723 9.50373723 -21.43498557 11.17744229 -22.5 15.4375 C-14.58 15.4375 -6.66 15.4375 1.5 15.4375 C-0.83404938 8.90800228 -0.83404938 8.90800228 -5.5 5.4375 C-9.93699416 3.87855611 -13.1912852 4.71401408 -17.5 6.4375 Z " fill="#008145" transform="translate(1584.5,444.5625)"/>
<path d="M0 0 C5.51078438 4.03228125 8.26980736 8.17650176 9.5625 14.875 C9.5625 17.185 9.5625 19.495 9.5625 21.875 C-0.6675 21.875 -10.8975 21.875 -21.4375 21.875 C-17.50953441 29.27077662 -17.50953441 29.27077662 -10.8828125 31.65234375 C-7.34226671 31.97472572 -4.70658316 31.02941295 -1.48046875 29.63671875 C0.5625 28.875 0.5625 28.875 4.5625 28.875 C6.5625 30.875 6.5625 30.875 6.5625 33.875 C-0.7233674 38.38836919 -6.87224332 40.1272996 -15.4375 38.875 C-21.04433354 37.29952611 -24.31951622 34.44080632 -27.52734375 29.65625 C-30.60948457 23.62424909 -30.21087505 16.35794094 -28.25 10.0625 C-22.08804371 -0.77404383 -11.63447132 -3.80764516 0 0 Z M-19.4375 9.875 C-20.0975 11.855 -20.7575 13.835 -21.4375 15.875 C-13.8475 15.875 -6.2575 15.875 1.5625 15.875 C1.11936428 10.15666221 1.11936428 10.15666221 -1.375 7.5 C-7.54469497 4.2262843 -14.73095195 4.28597419 -19.4375 9.875 Z " fill="#008145" transform="translate(1240.4375,444.125)"/>
<path d="M0 0 C5.29134137 3.8717132 7.87103826 7.45388408 9.30078125 13.75 C9.63201461 16.43941716 9.5625 19.16526197 9.5625 21.875 C-0.6675 21.875 -10.8975 21.875 -21.4375 21.875 C-17.50953441 29.27077662 -17.50953441 29.27077662 -10.8828125 31.65234375 C-7.34226671 31.97472572 -4.70658316 31.02941295 -1.48046875 29.63671875 C0.5625 28.875 0.5625 28.875 4.5625 28.875 C5.2225 30.195 5.8825 31.515 6.5625 32.875 C0.37944052 38.17476527 -4.39143143 39.35146888 -12.4296875 39.18359375 C-17.63715593 38.64932101 -21.45531422 37.05540435 -25 33.15625 C-29.78040344 26.74616357 -30.13555921 20.73315224 -29.4375 12.875 C-27.90478311 7.22426061 -24.94904415 3.95719493 -20.12109375 0.78515625 C-14.16671967 -2.43379772 -6.27578925 -2.05389466 0 0 Z M-20.4375 10.875 C-20.7675 12.525 -21.0975 14.175 -21.4375 15.875 C-13.8475 15.875 -6.2575 15.875 1.5625 15.875 C1.11936428 10.15666221 1.11936428 10.15666221 -1.375 7.5 C-8.55224487 3.69166599 -15.19054877 4.8208255 -20.4375 10.875 Z " fill="#008145" transform="translate(935.4375,444.125)"/>
<path d="M0 0 C3.12640009 2.50112007 4.49765258 4.28304738 5.13134766 8.24194336 C5.16276855 8.93425049 5.19418945 9.62655762 5.2265625 10.33984375 C5.26531494 11.1186792 5.30406738 11.89751465 5.34399414 12.69995117 C5.37485107 13.52084229 5.40570801 14.3417334 5.4375 15.1875 C5.49442017 16.44880737 5.49442017 16.44880737 5.55249023 17.7355957 C5.84003019 24.57591705 5.9231182 31.40396274 5.8125 38.25 C3.1725 38.25 0.5325 38.25 -2.1875 38.25 C-2.5175 37.26 -2.8475 36.27 -3.1875 35.25 C-3.93 35.745 -4.6725 36.24 -5.4375 36.75 C-10.36036072 39.19970926 -15.84592696 38.92318455 -21.1875 38.25 C-24.95948696 36.77589015 -26.93381149 34.63053276 -29.1875 31.25 C-29.88252786 26.48178561 -29.88187161 22.48443842 -27.5 18.25 C-22.35746281 13.80240027 -17.35113323 13.99210382 -10.875 14.125 C-10.03904297 14.13402344 -9.20308594 14.14304687 -8.34179688 14.15234375 C-6.29024031 14.17579011 -4.23883223 14.21165734 -2.1875 14.25 C-4.0047183 8.89854361 -4.0047183 8.89854361 -8.3125 5.625 C-13.27717074 5.14454799 -16.64808232 6.39376525 -21.1875 8.25 C-22.1775 8.58 -23.1675 8.91 -24.1875 9.25 C-25.1775 7.93 -26.1675 6.61 -27.1875 5.25 C-26.6875 3.4375 -26.6875 3.4375 -25.1875 1.25 C-17.80640998 -2.64944379 -7.62904738 -4.03796859 0 0 Z M-21.1875 22.25 C-22.43903259 24.59095531 -22.43903259 24.59095531 -22.1875 27.25 C-20.34691595 29.79850099 -18.83284198 30.98110751 -15.9375 32.1875 C-11.91886431 32.27883263 -8.68030767 31.22320953 -5.1875 29.25 C-2.44166509 25.9035137 -2.1875 24.6566945 -2.1875 20.25 C-4.41639496 20.19571027 -6.64567471 20.15707662 -8.875 20.125 C-10.11636719 20.10179687 -11.35773437 20.07859375 -12.63671875 20.0546875 C-16.02952968 20.24131076 -18.21602451 20.64320214 -21.1875 22.25 Z " fill="#008145" transform="translate(824.1875,444.75)"/>
<path d="M0 0 C2.64 0 5.28 0 8 0 C8.33 1.32 8.66 2.64 9 4 C10.36125 3.01 10.36125 3.01 11.75 2 C16.88819993 -0.93013438 22.25683036 -0.78968583 28 0 C32.59672871 2.17739781 34.79805257 4.47056069 37 9 C37.34057617 12.41333008 37.34057617 12.41333008 37.29296875 16.26953125 C37.28872391 16.95053391 37.28447906 17.63153656 37.28010559 18.33317566 C37.2634061 20.49336459 37.22577312 22.65259642 37.1875 24.8125 C37.17244174 26.28318958 37.15875534 27.75389389 37.14648438 29.22460938 C37.11353214 32.81671357 37.06181173 36.40826326 37 40 C34.36 40 31.72 40 29 40 C28.98541748 39.20303711 28.97083496 38.40607422 28.95581055 37.58496094 C28.88132525 33.97281876 28.78466488 30.36160026 28.6875 26.75 C28.66494141 25.49574219 28.64238281 24.24148438 28.61914062 22.94921875 C28.58369141 21.74394531 28.54824219 20.53867187 28.51171875 19.296875 C28.48553467 18.18666992 28.45935059 17.07646484 28.43237305 15.93261719 C27.95492561 12.69427802 27.30660866 11.29282481 25 9 C20.9839782 7.86339006 18.70779888 7.75499269 14.75 9.125 C11.67550215 11.22124853 10.64046958 12.6934423 9 16 C8.50383495 18.79238688 8.50383495 18.79238688 8.48828125 21.73828125 C8.45283203 22.80498047 8.41738281 23.87167969 8.38085938 24.97070312 C8.34702148 26.62489258 8.34702148 26.62489258 8.3125 28.3125 C8.27833984 29.43462891 8.24417969 30.55675781 8.20898438 31.71289062 C8.12670399 34.47516062 8.05748719 37.23712113 8 40 C5.36 40 2.72 40 0 40 C0 26.8 0 13.6 0 0 Z " fill="#008145" transform="translate(1470,443)"/>
<path d="M0 0 C2.64 0 5.28 0 8 0 C8.33 1.32 8.66 2.64 9 4 C10.36125 3.01 10.36125 3.01 11.75 2 C16.88819993 -0.93013438 22.25683036 -0.78968583 28 0 C32.59672871 2.17739781 34.79805257 4.47056069 37 9 C37.34057617 12.41333008 37.34057617 12.41333008 37.29296875 16.26953125 C37.28872391 16.95053391 37.28447906 17.63153656 37.28010559 18.33317566 C37.2634061 20.49336459 37.22577312 22.65259642 37.1875 24.8125 C37.17244174 26.28318958 37.15875534 27.75389389 37.14648438 29.22460938 C37.11353214 32.81671357 37.06181173 36.40826326 37 40 C34.36 40 31.72 40 29 40 C28.98541748 39.20303711 28.97083496 38.40607422 28.95581055 37.58496094 C28.88132525 33.97281876 28.78466488 30.36160026 28.6875 26.75 C28.66494141 25.49574219 28.64238281 24.24148438 28.61914062 22.94921875 C28.58369141 21.74394531 28.54824219 20.53867187 28.51171875 19.296875 C28.48553467 18.18666992 28.45935059 17.07646484 28.43237305 15.93261719 C27.95492561 12.69427802 27.30660866 11.29282481 25 9 C20.9839782 7.86339006 18.70779888 7.75499269 14.75 9.125 C11.67550215 11.22124853 10.64046958 12.6934423 9 16 C8.50383495 18.79238688 8.50383495 18.79238688 8.48828125 21.73828125 C8.45283203 22.80498047 8.41738281 23.87167969 8.38085938 24.97070312 C8.34702148 26.62489258 8.34702148 26.62489258 8.3125 28.3125 C8.27833984 29.43462891 8.24417969 30.55675781 8.20898438 31.71289062 C8.12670399 34.47516062 8.05748719 37.23712113 8 40 C5.36 40 2.72 40 0 40 C0 26.8 0 13.6 0 0 Z " fill="#008145" transform="translate(1258,443)"/>
<path d="M0 0 C2.64 0 5.28 0 8 0 C12.31472543 9.20607315 16.17012594 18.5853528 20 28 C20.29769287 27.22285645 20.59538574 26.44571289 20.90209961 25.64501953 C22.24618935 22.1379453 23.59182477 18.63146616 24.9375 15.125 C25.40607422 13.90167969 25.87464844 12.67835938 26.35742188 11.41796875 C27.0293457 9.66806641 27.0293457 9.66806641 27.71484375 7.8828125 C28.33540649 6.26463623 28.33540649 6.26463623 28.96850586 4.61376953 C30 2 30 2 31 0 C33.64 0 36.28 0 39 0 C36.55297566 9.01535283 33.136685 17.58510774 29.63964844 26.23291016 C28.6234756 28.75378165 27.62411819 31.28092268 26.625 33.80859375 C25.9723748 35.43009866 25.3187628 37.05120682 24.6640625 38.671875 C24.3711734 39.41886658 24.0782843 40.16585815 23.77651978 40.93548584 C21.68907955 46.02759134 19.14886334 51.42556833 14 54 C12.19051505 54.12176503 10.37603729 54.17545792 8.5625 54.1875 C7.59441406 54.20167969 6.62632813 54.21585937 5.62890625 54.23046875 C3 54 3 54 0 52 C0.875 47.25 0.875 47.25 2 45 C3.2375 45.2475 4.475 45.495 5.75 45.75 C9.31770967 46.20316267 9.31770967 46.20316267 12.4375 44.3125 C13.98175034 42.02700949 14.5824815 40.68767806 15 38 C14.04076058 35.25203394 13.01324184 32.70002265 11.81640625 30.05859375 C11.31487282 28.91246361 11.31487282 28.91246361 10.8032074 27.74317932 C9.73373746 25.30304155 8.64915018 22.87002997 7.5625 20.4375 C6.48152509 18.00056323 5.40390356 15.56227134 4.33250427 13.12110901 C3.66528119 11.6025906 2.99216872 10.08664366 2.31263733 8.57359314 C0 3.33491196 0 3.33491196 0 0 Z " fill="#008145" transform="translate(1341,443)"/>
<path d="M0 0 C2.64 0 5.28 0 8 0 C8.33 1.65 8.66 3.3 9 5 C9.78375 4.360625 10.5675 3.72125 11.375 3.0625 C16.53297487 -0.99019454 21.61377949 -0.60105605 28 0 C32.59672871 2.17739781 34.79805257 4.47056069 37 9 C37.34057617 12.41333008 37.34057617 12.41333008 37.29296875 16.26953125 C37.28872391 16.95053391 37.28447906 17.63153656 37.28010559 18.33317566 C37.2634061 20.49336459 37.22577312 22.65259642 37.1875 24.8125 C37.17244174 26.28318958 37.15875534 27.75389389 37.14648438 29.22460938 C37.11353214 32.81671357 37.06181173 36.40826326 37 40 C34.69 40 32.38 40 30 40 C29.98018066 39.29915283 29.96036133 38.59830566 29.93994141 37.8762207 C29.84443834 34.68794838 29.73486129 31.50030853 29.625 28.3125 C29.5940625 27.20970703 29.563125 26.10691406 29.53125 24.97070312 C29.49257812 23.90400391 29.45390625 22.83730469 29.4140625 21.73828125 C29.3826416 20.75899658 29.3512207 19.77971191 29.31884766 18.77075195 C28.84298204 14.63553077 28.00350041 11.86014321 24.8125 9.125 C21.02130142 7.60852057 18.9112963 7.88248677 15 9 C11.65400563 11.83682132 9.17279268 13.95484142 8.79467773 18.43017578 C8.73969116 19.92266846 8.73969116 19.92266846 8.68359375 21.4453125 C8.64169922 22.52167969 8.59980469 23.59804688 8.55664062 24.70703125 C8.49766602 26.39892578 8.49766602 26.39892578 8.4375 28.125 C8.39431641 29.26066406 8.35113281 30.39632813 8.30664062 31.56640625 C8.2003396 34.37747768 8.09830595 37.18863945 8 40 C5.36 40 2.72 40 0 40 C0 26.8 0 13.6 0 0 Z " fill="#008145" transform="translate(1002,443)"/>
<path d="M0 0 C5.04719523 2.32244128 5.04719523 2.32244128 6.19921875 5.2734375 C6.30169922 6.24796875 6.30169922 6.24796875 6.40625 7.2421875 C4.96875 8.9921875 4.96875 8.9921875 3.40625 10.2421875 C2.643125 9.9328125 1.88 9.6234375 1.09375 9.3046875 C-4.56298084 7.06830554 -9.60624266 6.17996267 -15.40625 8.2421875 C-18.56095927 11.12649312 -19.87476707 14.04063102 -20.59375 18.2421875 C-20.3483145 22.48361978 -19.28796797 25.39610935 -16.59375 28.6796875 C-12.8006163 31.6430732 -9.27941884 31.76572592 -4.59375 31.2421875 C-1.34316676 29.82595509 -1.34316676 29.82595509 1.40625 28.2421875 C4.40625 28.2421875 4.40625 28.2421875 6.09375 29.7421875 C6.526875 30.2371875 6.96 30.7321875 7.40625 31.2421875 C5.67272781 35.32712097 3.8405005 36.66322181 -0.1171875 38.4765625 C-6.31874913 40.39376452 -13.08139912 40.29405803 -19.03125 37.6171875 C-23.65156311 34.9123792 -26.8814689 31.3790308 -28.59375 26.2421875 C-29.71511524 11.60929023 -29.71511524 11.60929023 -24.59375 5.2421875 C-17.50119475 -1.31842611 -9.37367332 -2.73869371 0 0 Z " fill="#008145" transform="translate(1543.59375,443.7578125)"/>
<path d="M0 0 C5.04719523 2.32244128 5.04719523 2.32244128 6.19921875 5.2734375 C6.30169922 6.24796875 6.30169922 6.24796875 6.40625 7.2421875 C4.96875 8.9921875 4.96875 8.9921875 3.40625 10.2421875 C2.643125 9.9328125 1.88 9.6234375 1.09375 9.3046875 C-4.56298084 7.06830554 -9.60624266 6.17996267 -15.40625 8.2421875 C-18.56095927 11.12649312 -19.87476707 14.04063102 -20.59375 18.2421875 C-20.3483145 22.48361978 -19.28796797 25.39610935 -16.59375 28.6796875 C-12.8006163 31.6430732 -9.27941884 31.76572592 -4.59375 31.2421875 C-1.34316676 29.82595509 -1.34316676 29.82595509 1.40625 28.2421875 C4.40625 28.2421875 4.40625 28.2421875 6.09375 29.7421875 C6.526875 30.2371875 6.96 30.7321875 7.40625 31.2421875 C5.67272781 35.32712097 3.8405005 36.66322181 -0.1171875 38.4765625 C-6.31874913 40.39376452 -13.08139912 40.29405803 -19.03125 37.6171875 C-23.65156311 34.9123792 -26.8814689 31.3790308 -28.59375 26.2421875 C-29.71511524 11.60929023 -29.71511524 11.60929023 -24.59375 5.2421875 C-17.50119475 -1.31842611 -9.37367332 -2.73869371 0 0 Z " fill="#008145" transform="translate(1331.59375,443.7578125)"/>
<path d="M0 0 C2.64 0 5.28 0 8 0 C8 3.3 8 6.6 8 10 C11.96 10 15.92 10 20 10 C20 12.31 20 14.62 20 17 C16.04 17 12.08 17 8 17 C8.33 24.92 8.66 32.84 9 41 C14.23372768 41.05707555 14.23372768 41.05707555 19 40 C19.66 41.98 20.32 43.96 21 46 C17.08335717 49.03223961 13.94697586 49.46864467 9.15234375 49.28515625 C6.1033998 48.88121268 4.30777439 48.02804416 2 46 C0.17201942 42.30926964 -0.23909147 39.35505226 -0.1953125 35.26171875 C-0.18886719 34.19501953 -0.18242188 33.12832031 -0.17578125 32.02929688 C-0.15902344 30.92650391 -0.14226563 29.82371094 -0.125 28.6875 C-0.11597656 27.56537109 -0.10695313 26.44324219 -0.09765625 25.28710938 C-0.07414486 22.52452091 -0.04128155 19.76237068 0 17 C-1.65 17 -3.3 17 -5 17 C-5 14.69 -5 12.38 -5 10 C-3.35 10 -1.7 10 0 10 C0 6.7 0 3.4 0 0 Z " fill="#008145" transform="translate(954,434)"/>
<path d="M0 0 C2.31 0 4.62 0 7 0 C7 3.3 7 6.6 7 10 C10.96 10 14.92 10 19 10 C19 12.31 19 14.62 19 17 C15.04 17 11.08 17 7 17 C7.11395555 20.25073211 7.24070655 23.50009857 7.375 26.75 C7.4059375 27.67039062 7.436875 28.59078125 7.46875 29.5390625 C7.50742187 30.42851562 7.54609375 31.31796875 7.5859375 32.234375 C7.6173584 33.05131836 7.6487793 33.86826172 7.68115234 34.70996094 C8.02343693 37.16832958 8.7739277 38.85759999 10 41 C12.64 40.67 15.28 40.34 18 40 C19.4606285 42.64738916 20 43.89448334 20 47 C15.48507216 49.33028534 10.98067476 49.60587815 6 49 C2.71619637 47.73654016 2.03847713 47.0577157 0 44 C-0.22705078 41.1809082 -0.22705078 41.1809082 -0.1953125 37.80078125 C-0.18564453 35.98803711 -0.18564453 35.98803711 -0.17578125 34.13867188 C-0.15902344 32.87603516 -0.14226563 31.61339844 -0.125 30.3125 C-0.11597656 29.03826172 -0.10695313 27.76402344 -0.09765625 26.45117188 C-0.07405641 23.30059373 -0.04113194 20.15039017 0 17 C-1.98 17 -3.96 17 -6 17 C-6 14.69 -6 12.38 -6 10 C-4.02 10 -2.04 10 0 10 C0 6.7 0 3.4 0 0 Z " fill="#008145" transform="translate(619,434)"/>
<path d="M0 0 C6.6 0 13.2 0 20 0 C20 17.49 20 34.98 20 53 C17.36 53 14.72 53 12 53 C12 38.15 12 23.3 12 8 C8.04 8 4.08 8 0 8 C0 5.36 0 2.72 0 0 Z " fill="#008145" transform="translate(1709,430)"/>
<path d="M0 0 C2.64 0 5.28 0 8 0 C8 18.48 8 36.96 8 56 C5.36 56 2.72 56 0 56 C0 37.52 0 19.04 0 0 Z " fill="#008145" transform="translate(689,427)"/>
<path d="M0 0 C2.64 0 5.28 0 8 0 C8.33 1.32 8.66 2.64 9 4 C9.495 3.525625 9.99 3.05125 10.5 2.5625 C13.99468651 0.37832093 16.90966936 0.34086089 21 0 C21 2.31 21 4.62 21 7 C20.38511719 7.24234375 19.77023437 7.4846875 19.13671875 7.734375 C18.32847656 8.06953125 17.52023437 8.4046875 16.6875 8.75 C15.88699219 9.07484375 15.08648438 9.3996875 14.26171875 9.734375 C11.60458884 11.22126635 10.57963326 12.40203574 9 15 C8.49888483 17.79763443 8.49888483 17.79763443 8.48828125 20.859375 C8.45283203 21.97441406 8.41738281 23.08945312 8.38085938 24.23828125 C8.34702148 25.97658203 8.34702148 25.97658203 8.3125 27.75 C8.27833984 28.92433594 8.24417969 30.09867187 8.20898438 31.30859375 C8.12654827 34.20563389 8.05738189 37.10237298 8 40 C5.36 40 2.72 40 0 40 C0 26.8 0 13.6 0 0 Z " fill="#008145" transform="translate(841,443)"/>
<path d="M0 0 C2.64 0 5.28 0 8 0 C8 13.2 8 26.4 8 40 C5.36 40 2.72 40 0 40 C0 26.8 0 13.6 0 0 Z " fill="#008145" transform="translate(1450,443)"/>
<path d="M0 0 C2.64 0 5.28 0 8 0 C8 13.2 8 26.4 8 40 C5.36 40 2.72 40 0 40 C0 26.8 0 13.6 0 0 Z " fill="#008145" transform="translate(982,443)"/>
<path d="M0 0 C2.64 0 5.28 0 8 0 C8 13.2 8 26.4 8 40 C5.36 40 2.72 40 0 40 C0 26.8 0 13.6 0 0 Z " fill="#008145" transform="translate(597,443)"/>
<path d="M0 0 C2.64 0 5.28 0 8 0 C8 13.2 8 26.4 8 40 C5.36 40 2.72 40 0 40 C0 26.8 0 13.6 0 0 Z " fill="#008145" transform="translate(530,443)"/>
<path d="M0 0 C3 0.25 3 0.25 5 2.25 C4.43181818 7.81818182 4.43181818 7.81818182 3 9.25 C0.0625 9.4375 0.0625 9.4375 -3 9.25 C-5 7.25 -5 7.25 -5.25 4.75 C-4.86630891 0.91308908 -3.76694968 0.31391247 0 0 Z " fill="#008145" transform="translate(986,427.75)"/>
<path d="M0 0 C0.99 0.103125 1.98 0.20625 3 0.3125 C5 3.3125 5 3.3125 4.6875 5.9375 C4 8.3125 4 8.3125 3 9.3125 C0.0625 9.5 0.0625 9.5 -3 9.3125 C-5 7.3125 -5 7.3125 -5.25 4.8125 C-4.86676958 0.9801958 -3.75087075 0.3907157 0 0 Z " fill="#008145" transform="translate(1454,427.6875)"/>
<path d="M0 0 C0.99 0.103125 1.98 0.20625 3 0.3125 C5 3.3125 5 3.3125 4.6875 5.9375 C4 8.3125 4 8.3125 3 9.3125 C0.0625 9.5 0.0625 9.5 -3 9.3125 C-5 7.3125 -5 7.3125 -5.25 4.8125 C-4.86676958 0.9801958 -3.75087075 0.3907157 0 0 Z " fill="#008145" transform="translate(601,427.6875)"/>
<path d="M0 0 C0.99 0.103125 1.98 0.20625 3 0.3125 C5 3.3125 5 3.3125 4.6875 5.9375 C4 8.3125 4 8.3125 3 9.3125 C0.0625 9.5 0.0625 9.5 -3 9.3125 C-5 7.3125 -5 7.3125 -5.25 4.8125 C-4.86676958 0.9801958 -3.75087075 0.3907157 0 0 Z " fill="#008145" transform="translate(534,427.6875)"/>
</svg>
